#!OML:ASF E:\inclinewalkrobotboard\Project 1\Capture day 1\Session 1\subject1.ASF
:FULLY-SPECIFIED
:DEGREES
144
root 7.57746 16.5604 34.951 -171.131 4.4374 177.765
lowerback -6.11936 1.88968 -5.29021
upperback 1.82175 2.91272 0.909597
thorax 5.02557 1.26175 4.21492
lowerneck -9.83364 0.925377 -2.79911
upperneck 27.3411 -1.27103 4.23211
head 10.3667 -1.11614 1.70721
rclavicle 2.06736e-014 2.78299e-015
rhumerus -47.2422 -46.213 -55.4835
rradius 14.4598
rwrist 39.9801
rhand -21.022 -40.2927
rfingers 7.12502
rthumb 5.35314 -70.2051
lclavicle 2.06736e-014 2.78299e-015
lhumerus -26.835 2.14431 89.3961
lradius 18.797
lwrist -24.7506
lhand -26.2962 -23.5468
lfingers 7.12502
lthumb 0.25966 6.43281
rfemur -6.87624 0.690383 21.7394
rtibia 11.3952
rfoot -13.682 2.59474
rtoes -20.1829
lfemur -25.3699 -10.9209 -17.9929
ltibia 44.6466
lfoot -14.5906 6.11452
ltoes -61.4095
145
root 7.6037 16.5625 34.9412 -171.277 4.56647 177.788
lowerback -5.80966 1.9591 -5.134
upperback 1.9107 2.97709 0.960069
thorax 4.94039 1.29971 4.17347
lowerneck -9.746 0.953826 -2.8534
upperneck 27.4709 -1.27213 4.274
head 10.3974 -1.12964 1.73086
rclavicle 2.20651e-014 4.77083e-015
rhumerus -46.7096 -45.8275 -55.9666
rradius 14.5102
rwrist 39.1691
rhand -20.2725 -39.9563
rfingers 7.12502
rthumb 6.07675 -69.8491
lclavicle 2.20651e-014 4.77083e-015
lhumerus -27.1001 1.68323 89.6354
lradius 19.4751
lwrist -23.8256
lhand -26.1576 -23.3285
lfingers 7.12502
lthumb 0.393506 6.6509
rfemur -6.5839 0.795282 21.8325
rtibia 11.2605
rfoot -13.866 2.61062
rtoes -19.8539
lfemur -27.2779 -10.5534 -17.9583
ltibia 47.8241
lfoot -15.5299 6.34944
ltoes -61.1369
146
root 7.62866 16.5614 34.9292 -171.475 4.62264 177.732
lowerback -5.40204 2.00644 -5.06741
upperback 2.00661 3.01538 1.01732
thorax 4.80535 1.3238 4.1822
lowerneck -9.75929 0.971091 -2.9
upperneck 27.6824 -1.2885 4.28826
head 10.479 -1.15258 1.74227
rclavicle -1.20265e-014 -1.11319e-014
rhumerus -45.7608 -44.9159 -57.0698
rradius 14.6666
rwrist 37.806
rhand -19.857 -40.237
rfingers 7.12502
rthumb 6.47785 -70.1179
lclavicle -1.20265e-014 -1.11319e-014
lhumerus -27.3144 1.58702 89.7795
lradius 19.8923
lwrist -23.2592
lhand -26.0259 -23.5432
lfingers 7.12502
lthumb 0.520759 6.43591
rfemur -6.18468 0.909402 21.8337
rtibia 11.0177
rfoot -14.0611 2.39901
rtoes -20.9693
lfemur -29.2437 -10.1511 -18.0482
ltibia 50.9771
lfoot -16.7336 6.81884
ltoes -60.6173
147
root 7.64839 16.5614 34.913 -171.598 4.66577 177.743
lowerback -5.06944 2.067 -4.91087
upperback 2.11501 3.07022 1.08344
thorax 4.728 1.35684 4.15472
lowerneck -9.79504 0.938751 -3.03761
upperneck 27.9495 -1.38461 4.35471
head 10.5901 -1.21858 1.77892
rclavicle -5.56597e-015 5.56597e-015
rhumerus -44.9089 -44.244 -58.0015
rradius 14.7964
rwrist 36.7371
rhand -19.5077 -40.1997
rfingers 7.12502
rthumb 6.81504 -70.0701
lclavicle -5.56597e-015 5.56597e-015
lhumerus -27.3519 1.73824 89.8537
lradius 20.0052
lwrist -22.9138
lhand -26.0054 -23.9239
lfingers 7.12502
lthumb 0.540516 6.05515
rfemur -5.88561 0.923012 21.8983
rtibia 10.884
rfoot -14.2253 2.32855
rtoes -22.9641
lfemur -31.3191 -9.62682 -18.0872
ltibia 53.8594
lfoot -17.9975 7.1899
ltoes -60.081
148
root 7.66573 16.5662 34.8932 -171.676 4.64075 177.778
lowerback -4.76802 2.15592 -4.68217
upperback 2.19147 3.1619 1.10229
thorax 4.63724 1.41207 4.04028
lowerneck -9.7833 0.87381 -3.12888
upperneck 28.2139 -1.56005 4.46918
head 10.6955 -1.31315 1.81509
rclavicle -1.36167e-014 -1.19271e-014
rhumerus -44.4587 -44.2495 -58.3529
rradius 14.7881
rwrist 36.4242
rhand -19.2238 -40.0562
rfingers 7.12502
rthumb 7.08913 -69.9175
lclavicle -1.36167e-014 -1.19271e-014
lhumerus -27.4686 1.75985 89.8645
lradius 20.0681
lwrist -22.6857
lhand -26.0646 -24.1658
lfingers 7.12502
lthumb 0.483332 5.81338
rfemur -5.61736 0.792378 21.962
rtibia 10.765
rfoot -14.3144 2.62321
rtoes -23.3205
lfemur -33.405 -9.11932 -18.0961
ltibia 56.1933
lfoot -19.1839 7.32871
ltoes -59.7449
149
root 7.68281 16.5746 34.8706 -171.751 4.51375 177.745
lowerback -4.43321 2.26259 -4.48615
upperback 2.22086 3.27971 1.06976
thorax 4.47758 1.48262 3.88858
lowerneck -9.74692 0.834044 -2.99787
upperneck 28.4534 -1.71464 4.48967
head 10.7854 -1.38368 1.7811
rclavicle -3.19049e-014 3.57812e-015
rhumerus -44.2729 -44.5361 -58.4083
rradius 14.7133
rwrist 36.632
rhand -18.9721 -39.7302
rfingers 7.12502
rthumb 7.33206 -69.5831
lclavicle -3.19049e-014 3.57812e-015
lhumerus -27.7321 1.75986 89.7884
lradius 20.0473
lwrist -22.7635
lhand -26.0776 -24.2245
lfingers 7.12502
lthumb 0.470768 5.75471
rfemur -5.32279 0.575914 21.9351
rtibia 10.59
rfoot -14.4165 2.91079
rtoes -22.9965
lfemur -35.4827 -8.71816 -18.1743
ltibia 58.0039
lfoot -20.1874 7.2067
ltoes -59.6675
